<svg width="525" height="289" viewBox="0 0 525 289" fill="none" xmlns="http://www.w3.org/2000/svg">
<g clip-path="url(#clip0_41_165)">
<path d="M447.826 231.454C455.313 212.895 463.54 193.768 462.58 173.772C461.621 153.775 448.127 132.736 428.235 130.75C414.074 129.34 398.671 137.403 386.192 130.539C375.176 124.481 372.534 109.692 373.86 97.1722C375.186 84.6528 379.199 72.0418 376.612 59.7237C372.544 40.4045 350.183 27.1804 331.324 32.9276C314.192 38.1532 303.789 54.8916 292.947 69.159C282.105 83.4264 265.896 97.4651 248.417 93.5665C229.686 89.3842 221.623 67.9602 209.83 52.805C197.964 37.5584 178.638 27.1163 159.523 29.8344C140.408 32.5524 123.614 50.9198 126.247 70.065C127.518 79.3082 132.729 87.4623 136.011 96.193C139.293 104.924 140.252 115.768 134.009 122.696C128.78 128.498 120.049 129.688 112.324 128.626C104.6 127.565 97.1949 124.664 89.4518 123.712C75.337 121.982 60.5457 127.235 50.6818 137.485C40.8179 147.735 36.1099 162.726 38.3587 176.782C40.5985 190.839 49.1368 203.002 57.9129 214.204C66.6889 225.405 76.1323 236.543 80.7763 249.996C85.4203 263.449 84.1222 279.473 73.5544 288.991H450.522C440.412 269.031 440.357 250.005 447.844 231.445L447.826 231.454Z" fill="#FAE6E9"/>
<path d="M418.307 289H374.18L376.228 274.156C385.589 275.703 392.783 272.088 392.783 272.088L418.316 289H418.307Z" fill="#CC3648"/>
<path d="M405.335 278.723L402.483 281.303" stroke="#152949" stroke-width="0.5" stroke-linecap="round" stroke-linejoin="round"/>
<path d="M402.867 276.837L400.014 279.418" stroke="#152949" stroke-width="0.5" stroke-linecap="round" stroke-linejoin="round"/>
<path d="M400.408 274.961L397.555 277.542" stroke="#152949" stroke-width="0.5" stroke-linecap="round" stroke-linejoin="round"/>
<path d="M413.992 286.675H375.615" stroke="white" stroke-width="0.5" stroke-linecap="round" stroke-linejoin="round"/>
<path d="M468.257 289H424.13L426.178 274.156C435.539 275.703 442.734 272.088 442.734 272.088L468.267 289H468.257Z" fill="#CC3648"/>
<path d="M455.276 278.723L452.424 281.303" stroke="#152949" stroke-width="0.5" stroke-linecap="round" stroke-linejoin="round"/>
<path d="M452.817 276.837L449.965 279.418" stroke="#152949" stroke-width="0.5" stroke-linecap="round" stroke-linejoin="round"/>
<path d="M450.349 274.961L447.506 277.542" stroke="#152949" stroke-width="0.5" stroke-linecap="round" stroke-linejoin="round"/>
<path d="M463.933 286.675H425.566" stroke="white" stroke-width="0.5" stroke-linecap="round" stroke-linejoin="round"/>
<path d="M394.337 126.439H450.851C458.457 207.843 451.208 274.028 451.208 274.028C439.059 275.922 424.999 274.055 424.999 274.055L423.801 171.703C423.801 171.703 410.591 251.551 401.303 274.952C384.172 276.023 375.094 274.952 375.094 274.952C375.094 274.952 387.737 180.736 394.337 126.439Z" fill="#2E5AA0"/>
<path d="M424.158 170.834L425.127 155.084" stroke="#152949" stroke-width="0.5" stroke-linecap="round" stroke-linejoin="round"/>
<path d="M423.92 128.242C424.825 135.984 425.09 145.795 425.09 145.795" stroke="#152949" stroke-width="0.5" stroke-linecap="round" stroke-linejoin="round"/>
<path d="M426.206 128.242C426.206 128.242 427.394 140.295 427.175 141.237C426.955 142.18 425.017 143.47 425.017 143.47" stroke="#152949" stroke-width="0.5" stroke-linecap="round" stroke-linejoin="round"/>
<path d="M425.831 160.657L434.899 175.831" stroke="#152949" stroke-width="0.5" stroke-linecap="round" stroke-linejoin="round"/>
<path d="M405.262 130.713C402.108 139.554 395.06 143.47 395.06 143.47" stroke="#152949" stroke-width="0.5" stroke-linecap="round" stroke-linejoin="round"/>
<path d="M397.702 141.558L379.491 272.097" stroke="#152949" stroke-width="0.5" stroke-linecap="round" stroke-linejoin="round"/>
<path d="M428.29 164.775L429.954 270.578" stroke="#152949" stroke-width="0.5" stroke-linecap="round" stroke-linejoin="round"/>
<path d="M443.291 131.427C444.535 140.524 450.87 145.109 450.87 145.109" stroke="#152949" stroke-width="0.5" stroke-linecap="round" stroke-linejoin="round"/>
<path d="M440.403 62.4417C454.746 65.9834 470.57 94.4908 470.57 94.4908L503.188 75.4828L511.809 87.3617C511.809 87.3617 481.842 125.039 466.795 123.145C451.747 121.25 440.951 100.092 440.951 100.092L440.412 62.4326L440.403 62.4417Z" fill="#EB9E82"/>
<path d="M465.862 86.8583C463.12 101.876 450.577 113.581 450.577 113.581C449.16 112.08 447.652 110.268 446.116 108.328L465.862 86.8583Z" fill="#152949"/>
<path d="M515.575 65.8553L519.223 75.0527L516.242 78.1459C516.965 84.0762 511.863 88.4233 508.444 88.6154L499.056 77.8806L515.566 65.8553H515.575Z" fill="#EB9E82"/>
<path d="M518.902 86.7119L521.627 85.9523L512.22 56.6396L509.496 57.3992L518.902 86.7119Z" fill="#152949"/>
<path d="M519.924 54.7151C527.092 47.2762 526.606 35.1638 518.837 27.6613C511.068 20.1588 498.959 20.1072 491.791 27.5461C484.622 34.985 485.109 47.0974 492.878 54.5999C500.647 62.1024 512.756 62.154 519.924 54.7151Z" fill="#F94665"/>
<path d="M517.799 52.6719C523.884 46.3571 523.471 36.0747 516.876 29.7056C510.281 23.3366 500.001 23.2927 493.916 29.6076C487.831 35.9225 488.244 46.2049 494.839 52.5739C501.434 58.943 511.714 58.9868 517.799 52.6719Z" stroke="white" stroke-miterlimit="10"/>
<path d="M496.432 47.2317C496.039 47.2683 495.71 47.25 495.436 47.1768L495.564 46.0877C495.847 46.1609 496.149 46.1884 496.46 46.1701C496.77 46.1426 497.072 46.0694 497.365 45.9504C497.675 45.8223 497.904 45.6667 498.041 45.4837C498.178 45.3007 498.215 45.1176 498.151 44.9346C498.096 44.7882 497.977 44.6967 497.813 44.6784C497.639 44.6601 497.383 44.6692 497.026 44.7058C496.679 44.7424 496.386 44.7516 496.149 44.7516C495.92 44.7516 495.692 44.6875 495.481 44.5685C495.271 44.4496 495.107 44.2482 494.997 43.9554C494.869 43.6168 494.851 43.2782 494.933 42.9395C495.015 42.6009 495.207 42.2989 495.491 42.0152C495.774 41.7315 496.14 41.5027 496.578 41.3197C496.908 41.1824 497.228 41.0909 497.547 41.0452C497.867 40.9994 498.16 40.9994 498.416 41.0543L498.324 42.125C498.096 42.0701 497.858 42.061 497.602 42.0884C497.355 42.1159 497.1 42.18 496.862 42.2806C496.542 42.4179 496.313 42.5735 496.167 42.7657C496.021 42.9578 495.984 43.15 496.057 43.3331C496.094 43.4429 496.176 43.5161 496.277 43.5619C496.386 43.6076 496.505 43.6259 496.642 43.6168C496.78 43.6168 496.972 43.5985 497.209 43.571C497.547 43.5253 497.84 43.5069 498.069 43.5161C498.297 43.5161 498.516 43.5802 498.727 43.69C498.928 43.7998 499.083 44.0011 499.193 44.2757C499.321 44.6235 499.339 44.9621 499.248 45.3007C499.156 45.6393 498.974 45.9413 498.681 46.225C498.398 46.5087 498.032 46.7466 497.575 46.9297C497.191 47.0852 496.807 47.1859 496.414 47.2317H496.432Z" fill="white"/>
<path d="M500.5 40.8896L498.946 41.5393L498.781 40.5052L503.014 38.7481L503.179 39.7822L501.634 40.4228L502.365 44.8522L501.241 45.319L500.509 40.8896H500.5Z" fill="white"/>
<path d="M505.638 43.269C505.217 43.2324 504.843 43.086 504.532 42.8389C504.221 42.5826 503.983 42.244 503.819 41.8047C503.608 41.2282 503.544 40.6608 503.627 40.1025C503.709 39.5351 503.928 39.0318 504.285 38.5742C504.642 38.1166 505.117 37.7689 505.702 37.5218C506.186 37.3204 506.644 37.2381 507.064 37.2747C507.485 37.3113 507.859 37.4577 508.17 37.7048C508.481 37.9611 508.719 38.2997 508.883 38.7389C509.093 39.3155 509.158 39.8829 509.075 40.4411C508.993 41.0085 508.774 41.5119 508.417 41.9695C508.061 42.4271 507.585 42.7748 507 43.0219C506.516 43.2232 506.058 43.3056 505.638 43.269ZM507.567 41.3197C507.768 41.0269 507.887 40.7065 507.923 40.3496C507.96 39.9927 507.905 39.6358 507.768 39.2697C507.622 38.8854 507.393 38.6291 507.082 38.4918C506.762 38.3637 506.397 38.382 505.976 38.5559C505.62 38.7023 505.336 38.922 505.135 39.2148C504.934 39.5077 504.815 39.828 504.779 40.1849C504.742 40.5418 504.797 40.8987 504.934 41.2648C505.08 41.6492 505.309 41.9054 505.62 42.0427C505.94 42.18 506.305 42.1525 506.726 41.9786C507.082 41.8322 507.366 41.6126 507.567 41.3197Z" fill="white"/>
<path d="M512.933 35.0966C513.363 35.2339 513.673 35.5542 513.856 36.0484C514.012 36.4693 514.057 36.8812 513.975 37.2747C513.902 37.6682 513.719 38.0251 513.427 38.3454C513.134 38.6566 512.75 38.922 512.266 39.1233L511.178 39.5717L511.434 41.0726L510.3 41.5393L509.395 36.0758L511.361 35.2613C511.964 35.0051 512.485 34.9502 512.924 35.0966H512.933ZM512.732 37.5126C512.869 37.2472 512.878 36.9544 512.75 36.6158C512.659 36.3778 512.512 36.2222 512.32 36.1673C512.119 36.1124 511.872 36.1399 511.58 36.268L510.702 36.6341L511.013 38.5285L511.964 38.1349C512.339 37.9794 512.595 37.7689 512.732 37.5035V37.5126Z" fill="white"/>
<path d="M515.41 39.288C515.246 39.224 515.136 39.105 515.072 38.9311C514.999 38.7298 514.999 38.5376 515.09 38.3454C515.173 38.1624 515.319 38.0251 515.52 37.9427C515.703 37.8695 515.867 37.8604 516.032 37.9244C516.196 37.9885 516.306 38.1075 516.37 38.2722C516.443 38.4735 516.434 38.6657 516.352 38.8579C516.27 39.0501 516.133 39.1874 515.931 39.2697C515.749 39.3429 515.575 39.3521 515.41 39.2789V39.288ZM514.286 34.0624L515.575 33.5225L515.941 37.1832L515.081 37.5401L514.286 34.0624Z" fill="white"/>
<path d="M503.873 74.6866C503.499 69.9095 509.624 67.347 510.309 64.1714C510.428 63.6314 511.132 63.485 511.47 63.9334C512.942 65.8736 512.183 70.4128 512.183 70.4128C515.127 74.5768 512.138 77.9812 512.138 77.9812L503.864 74.6866H503.873Z" fill="#EB9E82"/>
<path d="M517.367 65.901C519.625 67.6307 513.408 72.7373 512.302 71.1083C511.196 69.4793 515.383 64.3819 517.367 65.901Z" fill="#EB9E82"/>
<path d="M518.537 68.2256C520.795 69.9552 514.578 75.0618 513.472 73.4328C512.366 71.8039 516.553 66.7064 518.537 68.2256Z" fill="#EB9E82"/>
<path d="M519.497 70.7514C521.563 72.3438 515.868 77.0203 514.853 75.5194C513.838 74.0277 517.678 69.3512 519.497 70.7514Z" fill="#EB9E82"/>
<path d="M520.054 72.6733C522.002 74.165 516.644 78.5578 515.694 77.1576C514.743 75.7574 518.354 71.3646 520.054 72.6733Z" fill="#EB9E82"/>
<path d="M517.687 67.6765C516.837 69.763 513.134 72.3255 512.302 71.1083C511.781 70.3487 512.43 68.8204 513.463 67.5758" stroke="#152949" stroke-width="0.5" stroke-linecap="round" stroke-linejoin="round"/>
<path d="M513.701 71.2914C513.28 72.1333 513.134 72.9387 513.463 73.4237C513.747 73.8355 514.368 73.8172 515.081 73.5244C516.306 73.021 517.851 71.7398 518.592 70.4952C519.113 69.6075 519.223 68.7564 518.528 68.2164C518.244 67.9968 517.915 67.9144 517.559 67.9419" stroke="#152949" stroke-width="0.5" stroke-linecap="round" stroke-linejoin="round"/>
<path d="M515.09 73.5335C514.679 74.3206 514.542 75.071 514.853 75.5286C515.017 75.7757 515.319 75.8489 515.685 75.8031C516.946 75.6292 519.067 73.9636 519.734 72.4994C520.054 71.813 520.045 71.1724 519.497 70.7514C519.232 70.5501 518.93 70.4769 518.601 70.4952" stroke="#152949" stroke-width="0.5" stroke-linecap="round" stroke-linejoin="round"/>
<path d="M515.685 75.8031C515.502 76.3431 515.474 76.8281 515.685 77.1484C516.645 78.5486 521.993 74.1558 520.045 72.6641C519.945 72.5909 519.835 72.5268 519.725 72.4902" stroke="#152949" stroke-width="0.5" stroke-linecap="round" stroke-linejoin="round"/>
<path d="M512.448 67.8503C512.522 68.7197 512.384 69.5983 512.046 70.3854C513.271 72.5909 513.701 75.19 513.253 77.606" stroke="#152949" stroke-width="0.5" stroke-linecap="round" stroke-linejoin="round"/>
<path d="M465.862 86.8583C461.648 99.5883 446.317 110.598 446.317 110.598L440.403 62.4417C453.823 64.9859 465.862 86.8583 465.862 86.8583Z" fill="#558AD8"/>
<path d="M440.402 62.4417C448.319 81.9896 450.961 127.638 450.961 127.638C420.492 127.684 392.29 127.638 392.29 127.638C392.29 127.638 394.328 85.4307 393.259 59.9891C422.978 57.7195 440.402 62.4417 440.402 62.4417Z" fill="#558AD8"/>
<path d="M437.587 73.0393C437.879 76.7366 434.643 77.8623 434.643 77.8623C431.243 77.0294 431.133 72.7465 431.133 72.7465L432.02 71.209L436.645 71.4195L437.587 73.0393Z" fill="#FC9F01"/>
<path d="M450.796 124.069L451.491 130.201H391.494L392.125 124.005L450.796 124.069Z" fill="#203B70"/>
<path d="M430.959 43.4429C432.732 38.4918 431.023 35.3254 431.023 35.3254L411.213 37.3296C410.875 40.7798 412.932 44.3672 412.932 44.3672C412.31 46.6643 413.919 48.2384 413.919 48.2384L430.95 43.452L430.959 43.4429Z" fill="#152949"/>
<path d="M424.121 54.8184L425.675 63.366C424.148 63.6314 421.854 65.3702 421.854 65.3702L412.383 63.97L414.86 35.8379L428.244 34.8861C433.153 44.5319 433.089 53.6653 424.13 54.8275L424.121 54.8184Z" fill="#EB9E82"/>
<path d="M418.727 36.03C418.161 40.615 416.086 40.3862 416.086 40.3862C416.332 43.7449 413.59 43.7083 413.59 43.7083L413.855 36.03H418.727Z" fill="#152949"/>
<path d="M424.121 54.8184C422.284 54.9923 420.647 54.3517 420.647 54.3517C421.708 56.5206 424.551 57.1521 424.551 57.1521L424.13 54.8184H424.121Z" fill="#152949"/>
<path d="M411.423 45.017C411.578 46.3257 412.749 47.3049 414.056 47.2134C415.354 47.1219 416.286 45.987 416.14 44.6784C415.985 43.3697 414.815 42.3904 413.507 42.482C412.209 42.5735 411.277 43.7083 411.423 45.017Z" fill="#EB9E82"/>
<path d="M425.867 43.4703C426.013 43.3971 426.214 43.4612 426.333 43.5893C426.452 43.7174 426.489 43.9005 426.461 44.0652C426.434 44.2299 426.342 44.3764 426.233 44.5045" stroke="#152949" stroke-width="0.5" stroke-linecap="round" stroke-linejoin="round"/>
<path d="M427.32 45.9321L423.527 44.8431C423.28 44.7699 423.033 44.9529 423.051 45.2092C423.225 47.6343 426.836 48.6685 427.604 46.4355C427.677 46.225 427.54 45.987 427.33 45.9321H427.32Z" fill="white"/>
<path d="M421.342 41.6766C421.36 42.1159 421.58 42.482 421.835 42.482C422.091 42.482 422.274 42.1251 422.256 41.6766C422.238 41.2373 422.018 40.8713 421.762 40.8713C421.506 40.8713 421.324 41.2282 421.342 41.6766Z" fill="#152949"/>
<path d="M428.052 41.1916C428.07 41.6309 428.289 41.9969 428.545 41.9969C428.801 41.9969 428.984 41.64 428.966 41.1916C428.948 40.7523 428.728 40.3862 428.472 40.3862C428.216 40.3862 428.034 40.7431 428.052 41.1916Z" fill="#152949"/>
<path d="M393.259 59.9891C372.525 60.9409 350.265 91.5897 351.472 103.807C352.889 118.139 394.63 142.464 395.005 142.198C400.855 138.904 404.229 130.713 404.229 130.713L378.586 103.716L394.145 92.3585L393.249 59.9982L393.259 59.9891Z" fill="#EB9E82"/>
<path d="M378.586 103.716C369.655 88.8717 359.517 83.6278 359.517 83.6278L367.689 85.3391L381.53 101.519L378.586 103.716Z" fill="#152949"/>
<path d="M381.274 102.682C374.244 89.8601 358.292 83.0604 358.292 83.0604C358.292 83.0604 373.732 60.5748 393.259 59.9891L395.114 92.8252L381.274 102.672V102.682Z" fill="#558AD8"/>
<path d="M411.213 37.3204L431.928 35.966C428.18 18.6053 412.465 23.2086 411.213 37.3204Z" fill="#558AD8"/>
<path d="M421.196 36.7073L437.952 35.426C437.687 43.7083 421.196 36.7073 421.196 36.7073Z" fill="#2E5AA0"/>
<path d="M405.07 58.7811L405.957 61.1971H397.144L395.983 58.9092L405.07 58.7811Z" fill="#FC9F01"/>
<path d="M429.825 59.8426L430.941 61.9384L440.512 63.3386L439.049 61.1971L429.825 59.8426Z" fill="#FC9F01"/>
<path d="M420.419 130.713H427.641C428.463 130.713 429.094 130.045 429.058 129.23L428.866 124.975C428.829 124.151 428.134 123.492 427.312 123.492H420.09C419.267 123.492 418.636 124.16 418.673 124.975L418.865 129.23C418.901 130.054 419.596 130.713 420.419 130.713Z" fill="#FC9F01"/>
<path d="M412.447 124.005L412.749 130.713H408.617L409.028 124.023L412.447 124.005Z" fill="#2E5AA0"/>
<path d="M439.799 124.005L440.101 130.713H435.969L436.38 124.023L439.799 124.005Z" fill="#2E5AA0"/>
<path d="M440.567 84.0305L440.832 90.0706L436.289 92.1754L431.069 89.7411V83.2892" stroke="#152949" stroke-width="0.5" stroke-linecap="round" stroke-linejoin="round"/>
<path d="M441.024 81.651L441.372 84.122L430.182 83.2434L430.402 80.864" stroke="#152949" stroke-width="0.5" stroke-linecap="round" stroke-linejoin="round"/>
<path d="M412.95 83.5729L413.224 89.613L408.681 91.7087L403.452 89.2744L403.461 82.8316" stroke="#152949" stroke-width="0.5" stroke-linecap="round" stroke-linejoin="round"/>
<path d="M413.416 81.1935L413.754 83.6644L402.565 82.7767L402.784 80.4064" stroke="#152949" stroke-width="0.5" stroke-linecap="round" stroke-linejoin="round"/>
<path d="M423.728 123.218C423.372 104.311 423.271 97.218 423.271 97.218" stroke="#152949" stroke-width="0.5" stroke-linecap="round" stroke-linejoin="round"/>
<path d="M393.981 93.5116C397.565 84.305 395.864 72.1699 395.864 72.1699" stroke="#152949" stroke-width="0.5" stroke-linecap="round" stroke-linejoin="round"/>
<path d="M449.188 107.166C446.994 80.1776 441.938 65.3702 441.938 65.3702" stroke="#152949" stroke-width="0.5" stroke-linecap="round" stroke-linejoin="round"/>
<path d="M362.661 78.4296C370.715 81.1385 375.88 87.8742 375.88 87.8742L375.478 91.3609L372.571 91.7087" stroke="#152949" stroke-width="0.5" stroke-linecap="round" stroke-linejoin="round"/>
<path d="M372.48 87.8559C373.458 87.8559 373.522 89.375 372.543 89.375C371.565 89.375 371.501 87.8559 372.48 87.8559Z" fill="#152949"/>
<path d="M461.895 82.31C460.514 86.7027 454.883 94.9941 454.883 94.9941L455.02 98.124L458.622 98.545" stroke="#152949" stroke-width="0.5" stroke-linecap="round" stroke-linejoin="round"/>
<path d="M457.187 95.3877C458.165 95.3877 458.229 96.9068 457.251 96.9068C456.273 96.9068 456.209 95.3877 457.187 95.3877Z" fill="#152949"/>
<path d="M420.519 67.7863L418.17 93.6672L423.298 98.2521L420.519 67.7863Z" fill="#152949"/>
<path d="M423.079 67.4385L427.65 93.5116L423.298 98.2521L419.011 93.6855L420.519 67.7863L415.116 65.3611L417.137 64.2995L421.854 66.2397L424.295 64.5558L426.388 65.5258L423.079 67.4385Z" fill="#2E5AA0"/>
<path d="M424.807 58.5889L429.661 60.5565L429.094 67.9968L424.889 64.9493L421.845 65.3611L425.328 62.4417L424.807 58.5889Z" fill="#9FCAFC"/>
<path d="M412.895 58.0581L408.534 59.6505L411.487 68.6282L416.405 64.9127L421.845 65.3611L416.579 63.0091L412.895 58.0581Z" fill="#9FCAFC"/>
<path d="M380.561 288.982H338.509L341.087 274.824C349.936 276.297 356.948 272.856 356.948 272.856L380.552 288.982H380.561Z" fill="#F97803"/>
<path d="M368.64 279.171L365.806 281.633" stroke="#152949" stroke-width="0.5" stroke-linecap="round" stroke-linejoin="round"/>
<path d="M366.373 277.387L363.539 279.848" stroke="#152949" stroke-width="0.5" stroke-linecap="round" stroke-linejoin="round"/>
<path d="M364.106 275.593L361.272 278.055" stroke="#152949" stroke-width="0.5" stroke-linecap="round" stroke-linejoin="round"/>
<path d="M376.548 286.767H339.981" stroke="white" stroke-width="0.5" stroke-linecap="round" stroke-linejoin="round"/>
<path d="M264.991 259.001L256.48 270.596L281.099 289H297.252L286.602 279.995L283.54 266.862L264.991 259.001Z" fill="#F97803"/>
<path d="M291.264 286.026H281.757L260.695 269.251" stroke="white" stroke-width="0.5" stroke-linecap="round" stroke-linejoin="round"/>
<path d="M287.983 277.78H283.357" stroke="#152949" stroke-width="0.5" stroke-linecap="round" stroke-linejoin="round"/>
<path d="M287.782 274.961H283.147" stroke="#152949" stroke-width="0.5" stroke-linecap="round" stroke-linejoin="round"/>
<path d="M287.58 272.152H282.946" stroke="#152949" stroke-width="0.5" stroke-linecap="round" stroke-linejoin="round"/>
<path d="M324.202 122.614L324.577 126.915L325.583 138.437L330.382 200.659L336.845 274.687C336.845 274.687 347.523 276.947 360.303 273.351C360.303 273.351 366.793 201.657 356.655 134.026C356.28 131.537 355.887 129.047 355.467 126.558C355.247 125.24 355.019 123.923 354.781 122.614H324.202Z" fill="#203B70"/>
<path d="M262.605 257.463C262.605 257.463 269.608 266.322 285.258 268.317C285.258 268.317 319.896 226.073 326.78 213.837C328.142 211.431 329.331 206.699 330.382 200.668C333.015 185.412 334.688 154.608 335.584 138.895C335.867 133.88 336.077 129.661 336.205 126.778C336.324 124.133 336.379 122.605 336.379 122.605H302.399C301.915 124.106 301.458 125.634 301.028 127.181C300.406 129.377 299.839 131.61 299.309 133.87C292.572 162.707 292.727 202.608 292.727 202.608L262.605 257.454V257.463Z" fill="#203B70"/>
<path d="M330.647 199.076C330.647 199.076 332.905 182.53 333.636 173.524" stroke="#4D52A8" stroke-linecap="round" stroke-linejoin="round"/>
<path d="M302.682 139.956C298.258 160.392 297.517 203.551 297.517 203.551L267.267 256.85" stroke="#4D52A8" stroke-linecap="round" stroke-linejoin="round"/>
<path d="M347.193 209.701L336.251 186.071" stroke="#4D52A8" stroke-linecap="round" stroke-linejoin="round"/>
<path d="M338.957 185.211L351.865 197.767" stroke="#4D52A8" stroke-linecap="round" stroke-linejoin="round"/>
<path d="M337.339 188.423L341.727 270.88" stroke="#4D52A8" stroke-linecap="round" stroke-linejoin="round"/>
<path d="M335.684 137.128C336.461 147.387 335.062 160.181 335.062 160.181" stroke="#4D52A8" stroke-linecap="round" stroke-linejoin="round"/>
<path d="M339.076 137.128C339.898 150.627 338.317 156.283 335.291 157.683" stroke="#4D52A8" stroke-linecap="round" stroke-linejoin="round"/>
<path d="M394.054 81.6968C394.054 81.6968 396.44 74.3938 395.553 74.1192C394.667 73.8447 393.122 78.0819 393.122 78.0819C393.122 78.0819 394.612 71.4103 393.899 71.0077C393.186 70.5958 390.717 76.8098 390.717 76.8098C390.717 76.8098 392.866 69.0309 391.833 68.6099C390.8 68.189 388.725 75.5835 388.725 75.5835C388.725 75.5835 390.361 68.4727 389.118 68.1432C387.874 67.8137 385.086 78.6768 385.086 78.6768C384.666 75.9862 382.874 74.5311 381.74 74.2016C381.347 74.0918 380.991 74.4487 381.082 74.8422C381.384 76.096 381.978 78.8506 381.594 79.5645C381.091 80.5071 381.1 82.978 382.097 84.0305L392.857 93.3926C397.921 85.0921 394.054 81.6968 394.054 81.6968Z" fill="#FF9576"/>
<path d="M388.661 80.1868C390.26 81.0379 391.312 82.8316 391.275 84.6436" stroke="#152949" stroke-width="0.5" stroke-linecap="round" stroke-linejoin="round"/>
<path d="M353.236 69.6258C364.225 73.1125 369.106 101.483 369.106 101.483C369.106 101.483 380.168 84.0945 382.097 84.0396C384.026 83.9847 393.798 89.2378 393.707 92.2212C393.615 95.2046 380.204 129.011 369.17 129.349C358.136 129.688 351.655 114.121 351.655 114.121L353.236 69.6349V69.6258Z" fill="#FFCE33"/>
<path d="M299.263 125.643C306.303 91.4708 305.644 63.5948 305.644 63.5948C336.068 63.5948 353.236 69.6258 353.236 69.6258C355.86 83.1428 357.505 127.821 357.505 127.821C335.922 136.451 299.263 125.652 299.263 125.652V125.643Z" fill="#FFCE33"/>
<path d="M342.001 66.8254C349.388 91.8917 345.457 135.554 345.457 135.554L357.624 133.394C359.416 101.693 349.488 68.5184 349.488 68.5184L341.992 66.8162L342.001 66.8254Z" fill="#F94665"/>
<path d="M315.49 101.611L301.037 101.025L301.631 105.418L314.813 106.608L315.49 101.611Z" fill="#F94665"/>
<path d="M312.089 63.5948C321.725 96.2937 305.498 134.31 305.498 134.31L320.244 137.128C332.082 92.7428 320.244 64.1897 320.244 64.1897L312.089 63.5948Z" fill="#F94665"/>
<path d="M331.04 79.9854L325.555 80.3149C324.12 96.5682 325.994 126.714 325.994 126.714L332.082 126.824L331.04 79.9763V79.9854Z" fill="#152949"/>
<path d="M331.04 79.9854L386.293 79.7933C388.276 94.802 385.57 127.821 385.57 127.821L332.082 126.824C329.577 102.416 331.04 79.9763 331.04 79.9763V79.9854Z" fill="#F97803"/>
<path d="M363.438 79.8756L351.646 79.9214L353.492 88.286L354.461 87.865L356.408 88.3409L358.164 87.1512L360.111 87.7552L361.994 87.0963L363.676 87.7369L363.438 79.8756Z" fill="white"/>
<path d="M347.623 95.5341L365.12 103.862" stroke="#152949" stroke-width="0.5" stroke-linecap="round" stroke-linejoin="round"/>
<path d="M353.702 100.604L366.757 109.033" stroke="#152949" stroke-width="0.5" stroke-linecap="round" stroke-linejoin="round"/>
<path d="M372.973 120.729L382.197 120.491L381.777 125.936L373.348 125.579L372.973 120.729Z" fill="#FC9F01"/>
<path d="M339.295 66.322C335.263 65.4526 328.7 64.8028 321.871 64.1805C328.855 76.2699 339.734 75.0252 339.295 66.322Z" fill="#FF9576"/>
<path d="M326.899 53.6836C323.224 48.6044 324.412 45.7308 324.412 45.7308C323.178 44.2025 323.526 42.4728 323.526 42.4728L345.877 41.7132C345.658 44.7973 343.93 50.1785 343.93 50.1785L326.899 53.6927V53.6836Z" fill="#152949"/>
<path d="M336.516 59.4034L337.366 67.8412C330.254 68.8204 324.412 67.0541 324.412 67.0541L328.892 40.4595L342.111 39.9836C346.179 49.6203 345.402 58.5797 336.507 59.4034H336.516Z" fill="#FF9576"/>
<path d="M331.634 41.457C331.424 47.552 326.771 48.3024 326.771 48.3024L327.575 41.7132L331.634 41.457Z" fill="#152949"/>
<path d="M336.516 59.4034C334.185 59.5223 333.17 58.6987 333.17 58.6987C334.459 61.133 336.79 62.0757 336.79 62.0757L336.516 59.4034Z" fill="#152949"/>
<path d="M324.814 49.3549C324.86 50.6452 325.939 51.6428 327.228 51.597C328.517 51.5513 329.513 50.4714 329.468 49.181C329.422 47.8906 328.343 46.8931 327.054 46.9388C325.774 46.9846 324.769 48.0645 324.814 49.3549Z" fill="#FF9576"/>
<path d="M336.598 46.7192C336.37 46.1518 335.775 45.74 335.163 45.74C334.55 45.74 333.947 46.1243 333.7 46.6917" stroke="#152949" stroke-width="0.5" stroke-linecap="round" stroke-linejoin="round"/>
<path d="M343.336 46.4721C343.107 45.9047 342.513 45.4929 341.9 45.4929C341.288 45.4929 340.685 45.8772 340.438 46.4446" stroke="#152949" stroke-width="0.5" stroke-linecap="round" stroke-linejoin="round"/>
<path d="M339.121 48.3299C339.277 48.2658 339.46 48.3299 339.569 48.458C339.67 48.5861 339.697 48.7692 339.652 48.9339C339.606 49.0986 339.514 49.2359 339.396 49.3549" stroke="#152949" stroke-width="0.5" stroke-linecap="round" stroke-linejoin="round"/>
<path d="M340.355 50.7917L336.708 49.5928C336.47 49.5196 336.214 49.6843 336.214 49.9314C336.196 52.3108 339.661 53.4548 340.584 51.295C340.666 51.0937 340.557 50.8557 340.355 50.7917Z" fill="white"/>
<path d="M333.92 46.2982C333.984 48.0919 335.081 49.5104 336.379 49.4647C337.668 49.4189 338.664 47.9272 338.6 46.1335C338.536 44.3398 337.439 42.9213 336.141 42.967C334.852 43.0128 333.856 44.5045 333.92 46.3074V46.2982Z" stroke="white" stroke-width="0.75" stroke-linecap="round" stroke-linejoin="round"/>
<path d="M339.661 46.0877C339.725 47.8814 340.822 49.3 342.12 49.2542C343.409 49.2084 344.405 47.7167 344.341 45.9138C344.277 44.1201 343.18 42.7016 341.882 42.7474C340.593 42.7931 339.597 44.2848 339.661 46.0877Z" stroke="white" stroke-width="0.75" stroke-linecap="round" stroke-linejoin="round"/>
<path d="M323.525 42.4728L346.343 41.6949C346.087 26.2561 323.909 25.3409 323.525 42.4728Z" fill="#F94665"/>
<path d="M325.253 42.1342L329.815 50.389L333.17 41.7132" stroke="#152949" stroke-width="0.5" stroke-linecap="round" stroke-linejoin="round"/>
<path d="M329.815 50.389C330.784 57.9208 337.421 59.5315 337.421 59.5315" stroke="#152949" stroke-width="0.5" stroke-linecap="round" stroke-linejoin="round"/>
<path d="M336.808 36.3321C334.888 36.3321 334.888 39.3155 336.808 39.3155C338.728 39.3155 338.728 36.3321 336.808 36.3321Z" fill="#152949"/>
<path d="M342.531 36.3321C340.611 36.3321 340.611 39.3155 342.531 39.3155C344.451 39.3155 344.451 36.3321 342.531 36.3321Z" fill="#152949"/>
<path d="M324.951 40.8072L344.917 40.011" stroke="#152949" stroke-width="0.5" stroke-linecap="round" stroke-linejoin="round"/>
<path d="M339.35 35.2156C339.13 33.3212 338.024 31.5549 336.415 30.5299" stroke="#152949" stroke-width="0.5" stroke-linecap="round" stroke-linejoin="round"/>
<path d="M332.494 121.086L329.294 130.905C329.294 130.905 333.792 134.108 335.73 134.282C337.668 134.456 338.628 133.724 338.628 133.724C341.05 133.953 342.732 132.013 342.732 132.013C345.621 132.553 347.001 130.237 347.001 130.237C349.323 130.301 351.097 127.775 350.174 126.961C350.174 126.961 342.943 127.025 340.09 123.831C342.888 121.571 343.884 120.482 343.866 119.164C343.866 118.523 343.162 118.139 342.595 118.441C339.396 120.17 335.327 119.823 332.494 121.086Z" fill="#FF9576"/>
<path d="M305.644 63.5948C291.063 63.1281 273.612 100.101 279.015 113.471C284.426 126.842 327.191 132.708 328.59 132.553C331.488 132.232 334.185 121.314 332.393 118.34L304.758 103.816C304.758 103.816 311.669 92.3951 312.226 87.3251C314.512 66.7613 305.635 63.5948 305.635 63.5948H305.644Z" fill="#FFCE33"/>
<path d="M321.085 112.391L300.104 101.19" stroke="#152949" stroke-width="0.5" stroke-linecap="round" stroke-linejoin="round"/>
<path d="M304.767 103.679C304.767 103.679 311.139 88.6795 312.409 85.632C314.119 79.2808 311.861 69.6258 311.861 69.6258" stroke="#152949" stroke-width="0.5" stroke-linecap="round" stroke-linejoin="round"/>
<path d="M66.1862 274.906L65.8297 264.382H49.4934L50.7641 272.994C54.4665 280.013 66.1953 274.906 66.1953 274.906H66.1862Z" fill="#B17056"/>
<path d="M116.548 274.906L114.857 264.382H97.4966L101.117 272.994C104.819 280.013 116.548 274.906 116.548 274.906Z" fill="#B17056"/>
<path d="M27.7817 288.68H68.6909L66.177 274.906C57.5655 276.343 50.7457 272.994 50.7457 272.994L27.7817 288.68Z" fill="#FC9F01"/>
<path d="M39.3826 279.144L42.1342 281.532" stroke="#152949" stroke-width="0.5" stroke-linecap="round" stroke-linejoin="round"/>
<path d="M41.595 277.396L44.3466 279.793" stroke="#152949" stroke-width="0.5" stroke-linecap="round" stroke-linejoin="round"/>
<path d="M43.7981 275.657L46.5498 278.045" stroke="#152949" stroke-width="0.5" stroke-linecap="round" stroke-linejoin="round"/>
<path d="M31.6943 286.529H67.2739" stroke="white" stroke-width="0.5" stroke-linecap="round" stroke-linejoin="round"/>
<path d="M78.1526 288.68H119.062L116.548 274.906C107.936 276.343 101.117 272.994 101.117 272.994L78.1526 288.68Z" fill="#FC9F01"/>
<path d="M89.7534 279.144L92.5051 281.532" stroke="#152949" stroke-width="0.5" stroke-linecap="round" stroke-linejoin="round"/>
<path d="M94.7083 279.793L91.9658 277.396" stroke="#152949" stroke-width="0.5" stroke-linecap="round" stroke-linejoin="round"/>
<path d="M94.1689 275.657L96.9206 278.045" stroke="#152949" stroke-width="0.5" stroke-linecap="round" stroke-linejoin="round"/>
<path d="M82.0562 286.529H117.636" stroke="white" stroke-width="0.5" stroke-linecap="round" stroke-linejoin="round"/>
<path d="M119.866 270.541C119.866 270.541 99.334 176.673 90.8504 117.672H38.962C25.8619 199.323 46.4217 270.541 46.4217 270.541H69.1937L66.8534 163.54C80.8677 226.43 95.8053 270.541 95.8053 270.541H119.875H119.866Z" fill="#2E5AA0"/>
<path d="M66.7163 161.618C64.4217 151.423 63.407 143.718 63.407 143.718" stroke="#152949" stroke-width="0.5" stroke-linecap="round" stroke-linejoin="round"/>
<path d="M62.1272 152.823L54.4939 174.485" stroke="#152949" stroke-width="0.5" stroke-linecap="round" stroke-linejoin="round"/>
<path d="M63.2791 158.049L55.5178 205.564" stroke="#152949" stroke-width="0.5" stroke-linecap="round" stroke-linejoin="round"/>
<path d="M86.938 132.315C100.175 219.2 113.924 267.018 113.924 267.018" stroke="#152949" stroke-width="0.5" stroke-linecap="round" stroke-linejoin="round"/>
<path d="M61.7981 167.082L65.4182 265.572" stroke="#152949" stroke-width="0.5" stroke-linecap="round" stroke-linejoin="round"/>
<path d="M62.1272 126.265C61.7432 131.683 62.6391 138.181 62.6391 138.181" stroke="#152949" stroke-width="0.5" stroke-linecap="round" stroke-linejoin="round"/>
<path d="M59.6498 126.265C59.6498 126.265 58.5162 135.692 62.4106 136.14" stroke="#152949" stroke-width="0.5" stroke-linecap="round" stroke-linejoin="round"/>
<path d="M83.4912 156.301L86.1332 151.021L103.064 156.1L102.533 160.886" stroke="#152949" stroke-width="0.5" stroke-linecap="round" stroke-linejoin="round"/>
<path d="M70.967 152.924L121.832 165.077C123.258 170.761 115.816 191.132 115.816 191.132L65.418 178.329C65.4545 168.528 70.967 152.924 70.967 152.924Z" fill="#F94665"/>
<path d="M104.874 162.186C99.5349 172.884 98.7944 185.788 98.7944 185.788" stroke="#152949" stroke-width="0.5" stroke-linecap="round" stroke-linejoin="round"/>
<path d="M69.5134 160.209L102.195 168.738L119.893 171.996" stroke="#152949" stroke-width="0.5" stroke-linecap="round" stroke-linejoin="round"/>
<path d="M92.7517 164.354L91.6821 168.354L96.0519 169.809L97.0483 165.425L92.7517 164.354Z" fill="#152949"/>
<path d="M74.3221 159.449L73.2434 163.448L77.6132 164.894L78.6187 160.52L74.3221 159.449Z" fill="#152949"/>
<path d="M50.6085 60.5107L44.7029 86.1353C44.7029 86.1353 41.3754 85.5496 36.5851 84.2867C33.4769 83.4631 29.7471 82.3557 25.9167 80.928C16.2448 77.3131 5.96033 71.6757 3.3915 63.5491C-1.74615 47.2683 12.4967 14.3589 12.4967 14.3589L28.2021 18.2758C28.2021 18.2758 23.1742 37.595 21.9766 52.5213L37.2616 56.786L43.7705 58.598L50.6085 60.5016V60.5107Z" fill="#B17056"/>
<path d="M27.2149 53.9947C19.4078 66.3678 21.5287 80.7633 21.5287 80.7633C33.0747 84.8358 44.0996 86.8766 44.0996 86.8766L50.6085 60.5107L27.2149 53.9947Z" fill="white"/>
<path d="M22.5982 6.25973C22.5982 6.25973 27.9187 -0.311153 28.7049 0.347766C29.491 1.00668 26.4926 4.9785 26.4926 4.9785C26.4926 4.9785 31.7765 -0.384366 32.5809 0.0274581C33.3854 0.448434 29.1162 6.44277 29.1162 6.44277C29.1162 6.44277 35.0309 -0.192182 36.0365 0.512496C37.0421 1.21717 31.4382 7.55927 31.4382 7.55927C31.4382 7.55927 37.033 1.79373 38.0843 2.75465C39.1356 3.70642 30.7526 12.7849 30.7526 12.7849C33.486 11.5677 35.9085 12.3639 36.8958 13.215C37.2341 13.5078 37.1152 14.0661 36.6947 14.2125C35.36 14.6792 32.4621 15.7774 32.0233 16.5645C31.4565 17.5895 29.1619 19.0537 27.5896 18.7609L12.4966 14.3772C17.1497 4.72225 22.5982 6.27804 22.5982 6.27804V6.25973Z" fill="#B17056"/>
<path d="M27.2147 10.3597C25.4686 9.38959 23.1832 9.48111 21.5286 10.5976" stroke="#152949" stroke-width="0.5" stroke-linecap="round" stroke-linejoin="round"/>
<path d="M94.306 124.38C94.306 124.38 59.6132 133.962 36.6492 124.38C36.6492 124.38 41.0372 84.4697 50.6086 60.5107C53.3237 61.0049 55.8011 61.3801 58.0957 61.6821C69.4222 63.1464 76.2328 62.5881 84.1039 63.4026C87.3583 63.7321 90.7865 64.2995 94.7905 65.3428C94.7905 65.3428 90.6036 101.272 94.306 124.38Z" fill="white"/>
<path d="M64.6777 62.3685C64.9703 69.6349 72.6493 75.6292 80.3284 63.1006L64.6777 62.3685Z" fill="#B17056"/>
<path d="M60.7285 45.383C58.8178 41.6126 59.7137 38.5834 59.7137 38.5834L80.9682 41.1001C81.0322 44.2848 79.1856 45.2092 79.1856 45.2092C79.1582 48.9064 76.4522 49.7301 76.4522 49.7301L60.7376 45.383H60.7285Z" fill="#152949"/>
<path d="M67.6304 55.944L66.5517 63.8694C73.2251 65.0225 78.9021 64.4276 78.9021 64.4276L75.4374 38.3271L62.9864 37.4394C58.8361 46.3897 59.2749 54.8642 67.6304 55.9349V55.944Z" fill="#B17056"/>
<path d="M72.0277 39.9195C72.5396 44.0561 74.3497 43.9371 74.3497 43.9371C74.4411 45.9413 76.8088 46.0054 76.8088 46.0054L76.6991 39.224L72.0186 39.9287L72.0277 39.9195Z" fill="#152949"/>
<path d="M67.6304 55.944C69.541 56.063 71.214 55.4041 71.214 55.4041C70.3455 57.6737 67.3196 58.2503 67.3196 58.2503L67.6304 55.944Z" fill="#152949"/>
<path d="M78.9935 46.8473C78.9112 48.0553 77.8599 48.9705 76.6441 48.8881C75.4374 48.8058 74.5232 47.7533 74.6055 46.5361C74.6878 45.319 75.7391 44.413 76.9549 44.4953C78.1616 44.5777 79.0758 45.6301 78.9935 46.8473Z" fill="#B17056"/>
<path d="M65.537 45.4105C65.3907 45.3464 65.217 45.4013 65.1164 45.5203C65.0159 45.6393 64.9884 45.8132 65.0159 45.9687C65.0524 46.1243 65.1347 46.2616 65.2444 46.3714" stroke="#152949" stroke-width="0.5" stroke-linecap="round" stroke-linejoin="round"/>
<path d="M64.2939 47.6984L67.7677 46.6917C67.9963 46.6277 68.2339 46.7924 68.2248 47.0303C68.1608 49.2816 64.8607 50.2426 64.0562 48.1651C63.983 47.973 64.0927 47.7533 64.2939 47.6984Z" fill="white"/>
<path d="M68.2979 43.8639C68.5447 43.5161 68.9835 43.3056 69.4131 43.3514C69.8428 43.388 70.2359 43.6717 70.4096 44.0652" stroke="#152949" stroke-width="0.5" stroke-linecap="round" stroke-linejoin="round"/>
<path d="M61.9443 43.452C62.1912 43.1043 62.63 42.8938 63.0596 42.9396C63.4893 42.9853 63.8824 43.2599 64.0561 43.6534" stroke="#152949" stroke-width="0.5" stroke-linecap="round" stroke-linejoin="round"/>
<path d="M100.842 155.734L101.848 153.858C109.628 153.491 111.803 149.84 113.083 147.406L98.4563 139.242C97.9901 140.322 91.8743 142.61 89.5066 146.051C87.1389 149.492 85.7036 156.612 89.6528 155.606C90.7224 158.076 93.2181 156.859 93.2181 156.859C94.6534 159.651 96.1343 158.131 96.1343 158.131C99.2151 161.829 105.075 156.191 100.861 155.743L100.842 155.734Z" fill="#B17056"/>
<path d="M89.5523 155.212C89.2323 154.681 89.1501 154.022 89.3237 153.427" stroke="#152949" stroke-width="0.5" stroke-linecap="round" stroke-linejoin="round"/>
<path d="M93.1907 156.411C92.8068 155.889 92.6514 155.212 92.7794 154.581" stroke="#152949" stroke-width="0.5" stroke-linecap="round" stroke-linejoin="round"/>
<path d="M95.9242 157.656C95.6956 157.308 95.6408 156.868 95.7688 156.475" stroke="#152949" stroke-width="0.5" stroke-linecap="round" stroke-linejoin="round"/>
<path d="M100.669 155.77C100.34 155.935 99.9739 156.045 99.5991 156.081" stroke="#152949" stroke-width="0.5" stroke-linecap="round" stroke-linejoin="round"/>
<path d="M112.48 148.476L97.1765 140.277L116.045 110.836L108.476 106.415L89.5889 95.3785L94.7996 65.3519C106.912 69.4244 118.879 77.2491 128.076 85.6595C136.824 93.6488 143.068 102.169 144.558 108.456C147.611 121.36 112.48 148.476 112.48 148.476Z" fill="#B17056"/>
<path d="M116.31 110.689L122.225 102.059" stroke="#152949" stroke-width="0.5" stroke-linecap="round" stroke-linejoin="round"/>
<path d="M111.182 107.989C116.657 93.3926 128.066 85.6503 128.066 85.6503L120.223 83.9023L104.855 104.475L111.182 107.989Z" fill="#152949"/>
<path d="M128.066 85.6503C128.066 85.6503 113.787 92.9442 108.467 106.406L88.7205 95.8818L94.7814 65.3519C106.894 69.4244 118.861 77.2491 128.057 85.6595L128.066 85.6503Z" fill="white"/>
<path d="M99.5991 133.678C99.5991 133.678 89.5798 137.504 76.5985 137.504C76.5985 137.504 76.1323 134.383 75.6843 129.102C75.5472 127.492 75.4192 125.67 75.3004 123.685C74.4319 109.17 74.4319 85.3941 80.7214 63.1281C82.3852 63.1281 84.0124 63.2562 85.5391 63.4301C86.7824 63.5765 87.9525 63.7596 89.0221 63.9609C92.4502 64.5924 94.7905 65.3519 94.7905 65.3519C94.7905 65.3519 81.7727 100.302 96.2166 104.887C96.6463 110.039 97.1948 115.521 97.8896 121.259C98.0998 123.035 98.3375 124.838 98.5843 126.659C98.8952 128.965 99.2334 131.308 99.5991 133.678Z" fill="#F97803"/>
<path d="M98.5844 126.65C93.9221 127.446 89.2416 128.059 84.5519 128.489C83.9942 128.544 83.4366 128.59 82.8881 128.636C80.4929 128.837 78.0887 128.993 75.6935 129.093C75.5564 127.483 75.4284 125.661 75.3096 123.675C77.339 123.593 79.3685 123.474 81.398 123.309C82.5498 123.227 83.7108 123.126 84.8627 123.007C89.2233 122.586 93.5747 122.001 97.8988 121.25C98.109 123.026 98.3467 124.829 98.5935 126.65H98.5844Z" fill="#FC9F01"/>
<path d="M85.4386 126.311C85.594 127.181 85.1552 127.849 84.5518 128.205C84.0308 128.507 83.3908 128.581 82.888 128.352C82.4949 128.169 82.1841 127.812 82.0836 127.226C81.8367 125.835 81.6082 124.444 81.3979 123.044C78.4543 103.121 79.8438 82.7492 85.5483 63.4118C86.7916 63.5582 87.9617 63.7413 89.0313 63.9426C83.3543 82.9872 81.9007 103.103 84.8627 122.751C85.0363 123.941 85.2375 125.121 85.4477 126.302L85.4386 126.311Z" fill="#FC9F01"/>
<path d="M63.9646 62.3136C55.7279 85.5588 52.3546 108.804 50.9742 123.062C50.7823 125.066 50.6268 126.888 50.508 128.507C50.1058 133.916 50.0418 137.083 50.0418 137.083C38.9254 135.893 32.0234 133.376 32.0234 133.376C32.4805 130.887 32.9285 128.471 33.3856 126.11C33.7421 124.279 34.0895 122.486 34.446 120.729C42.509 80.7999 50.6086 60.5199 50.6086 60.5199L54.7589 61.0781L58.2693 61.5449L63.9646 62.3136Z" fill="#F97803"/>
<path d="M50.9742 123.053C50.7822 125.057 50.6268 126.878 50.5079 128.498C44.7761 127.977 39.0625 127.18 33.3855 126.101C33.742 124.27 34.0894 122.477 34.4459 120.719C36.9508 121.195 39.4739 121.616 41.997 121.982C43.1397 122.147 44.2916 122.303 45.4343 122.449C47.2809 122.678 49.1184 122.879 50.9742 123.053Z" fill="#FC9F01"/>
<path d="M58.2692 61.5449C52.0711 81.3856 47.7562 101.785 45.4342 122.458C45.3063 123.529 45.1966 124.6 45.0869 125.68C44.8583 127.903 41.3662 127.894 41.5947 125.661C41.7227 124.435 41.8507 123.218 41.997 122.001C44.3372 101.345 48.5973 80.9464 54.7588 61.0873L58.2692 61.554V61.5449Z" fill="#FC9F01"/>
<path d="M80.9681 41.1001L56.0295 39.7639C55.6455 38.7389 59.4028 37.4028 59.4028 37.4028C60.381 32.9093 63.0686 29.8893 66.2408 28.5623C68.316 27.6929 70.5923 27.5373 72.7223 28.1596C76.8909 29.3677 80.511 33.5408 80.9773 41.1001H80.9681Z" fill="#F97803"/>
<path d="M72.7132 28.1596C72.448 28.2237 67.2281 29.5781 65.9848 37.4394L61.2769 37.2106C62.3556 32.6622 64.5222 30.0174 66.2408 28.5623C68.316 27.6929 70.5923 27.5373 72.7223 28.1596H72.7132Z" fill="#FC9F01"/>
<path d="M60.0977 37.2747L74.3496 37.9611" stroke="#152949" stroke-width="0.5" stroke-linecap="round" stroke-linejoin="round"/>
<path d="M71.7168 37.6133L72.6127 34.1814L76.699 34.6665" stroke="#152949" stroke-width="0.5" stroke-linecap="round" stroke-linejoin="round"/>
<path d="M193.869 276.59L177.752 275.556C171.81 258.397 166.791 231.125 164.469 217.379C163.582 212.144 163.088 208.877 163.088 208.877L188.21 204.796L189.161 216.922L193.859 276.59H193.869Z" fill="#FB7070"/>
<path d="M196.949 289H188.859L187.369 286.209L184.9 289H157.585L172.577 279.006L180.229 273.909C180.229 273.909 185.275 276.966 193.612 275.584L194.088 277.506L196.949 289.009V289Z" fill="#FB7070"/>
<path d="M196.949 289H188.859L187.369 286.209L184.9 289H157.585L172.577 279.006C180.467 283.353 190.596 279.189 194.088 277.496L196.949 289Z" fill="#2E5AA0"/>
<path d="M154.239 211.01L153.682 220.829L150.519 276.599L134.411 275.565C130.544 256.118 127.737 228.901 126.622 216.995C126.275 213.252 126.083 211.019 126.083 211.019H154.248L154.239 211.01Z" fill="#FB7070"/>
<path d="M153.608 289H145.518L144.028 286.209L141.56 289H114.244L129.237 279.006L136.888 273.909C136.888 273.909 141.934 276.966 150.272 275.584L150.747 277.506L153.608 289.009V289Z" fill="#FB7070"/>
<path d="M153.608 289H145.518L144.028 286.209L141.56 289H114.244L129.237 279.006C137.126 283.353 147.255 279.189 150.747 277.496L153.608 289Z" fill="#2E5AA0"/>
<path d="M174.305 116.208H137.364C113.156 154.498 129.602 266.231 129.602 266.231C140.993 268.336 157.539 266.231 157.539 266.231L156.269 175.712C159.697 222.779 167.193 265.416 167.193 265.416C180.677 267.521 195.935 264.007 195.935 264.007C192.15 221.854 200.268 143.626 174.305 116.208Z" fill="#FFCE33"/>
<path d="M174.25 134.282C191.501 168.454 187.515 236.964 189.398 261.6" stroke="#152949" stroke-width="0.5" stroke-linecap="round" stroke-linejoin="round"/>
<path d="M151.597 262.597C151.588 261.893 153.014 178.055 153.014 178.055" stroke="#152949" stroke-width="0.5" stroke-linecap="round" stroke-linejoin="round"/>
<path d="M130.571 262.14C144 263.934 155.912 262.14 155.912 262.14" stroke="#152949" stroke-width="0.5" stroke-linecap="round" stroke-linejoin="round"/>
<path d="M167.522 262.799C181.628 263.586 193.878 260.776 193.878 260.776" stroke="#152949" stroke-width="0.5" stroke-linecap="round" stroke-linejoin="round"/>
<path d="M88.6747 85.1378C88.6747 85.1378 80.0449 85.0737 78.8839 84.6711C77.5583 84.2043 72.055 79.3723 72.2378 78.5944C72.4207 77.8165 98.2552 74.7232 98.2552 74.7232L88.6838 85.147L88.6747 85.1378Z" fill="#FB7070"/>
<path d="M147.365 72.8838C136.852 74.769 122.81 94.4542 122.81 94.4542L98.2552 74.7141L88.6838 85.1378C88.6838 85.1378 109.609 116.793 124.839 116.208C137.939 115.704 148.489 96.6689 148.489 96.6689L147.365 72.8838Z" fill="#FB7070"/>
<path d="M124.766 91.8643C129.465 101.409 137.565 110.195 137.565 110.195L141.011 105.454L124.766 91.8643Z" fill="#152949"/>
<path d="M147.364 72.8838C136.239 74.4578 124.483 91.3884 124.483 91.3884C130.068 100.924 140.718 108.337 140.718 108.337L147.364 72.8838Z" fill="#9FCAFC"/>
<path d="M180.723 100.192L179.169 104.073L174.314 116.208C154.66 119.237 137.373 116.208 137.373 116.208L137.135 102.48C132.573 97.6573 137.181 89.8143 142.044 86.2177L147.365 72.8838C160.894 70.4769 177.523 71.6483 177.523 71.6483L180.723 100.192Z" fill="#9FCAFC"/>
<path d="M140.371 87.8925L173.437 88.5605L174.305 116.217L185.979 191.7C150.125 199.845 121.073 194.225 121.073 194.225C124.419 131.793 137.364 116.217 137.364 116.217L137.126 102.489C132.902 96.797 137.821 90.6197 140.371 87.8925Z" fill="#FC9F01"/>
<path d="M143.598 92.0382L163.938 92.4225C156.506 104.951 144.494 99.5334 143.598 92.0382Z" stroke="#152949" stroke-width="0.5" stroke-linecap="round" stroke-linejoin="round"/>
<path d="M167.687 88.9449L169.679 71.0809L174.936 71.3646L171.261 88.9449H167.687Z" fill="#FC9F01"/>
<path d="M145.363 88.3867L153.343 71.6483L148.526 72.2523L142.337 88.2402L145.363 88.3867Z" fill="#FC9F01"/>
<path d="M137.171 104.988L137.126 102.48C133.286 95.6714 137.171 90.9217 142.035 86.2177L144.887 79.0794" stroke="#152949" stroke-width="0.5" stroke-linecap="round" stroke-linejoin="round"/>
<path d="M179.607 101.126L177.24 100.275C174.488 93.8959 176.536 84.0579 176.536 84.0579" stroke="#152949" stroke-width="0.5" stroke-linecap="round" stroke-linejoin="round"/>
<path d="M170.374 132.003L171.892 130.969C177.806 133.696 180.933 131.765 182.88 130.42L175.384 118.605C174.598 119.246 169.113 118.605 165.94 120.298C162.768 121.992 158.773 126.814 162.11 127.574C161.891 129.853 164.24 129.899 164.24 129.899C164.158 132.562 165.876 131.985 165.876 131.985C166.635 135.966 173.309 133.962 170.365 132.003H170.374Z" fill="#FB7070"/>
<path d="M162.211 127.263C162.192 126.741 162.403 126.21 162.777 125.826" stroke="#152949" stroke-width="0.5" stroke-linecap="round" stroke-linejoin="round"/>
<path d="M164.414 129.569C164.341 129.029 164.514 128.453 164.862 128.022" stroke="#152949" stroke-width="0.5" stroke-linecap="round" stroke-linejoin="round"/>
<path d="M165.931 131.564C165.904 131.216 166.05 130.859 166.297 130.612" stroke="#152949" stroke-width="0.5" stroke-linecap="round" stroke-linejoin="round"/>
<path d="M170.228 131.967C169.908 131.967 169.597 131.903 169.304 131.793" stroke="#152949" stroke-width="0.5" stroke-linecap="round" stroke-linejoin="round"/>
<path d="M150.299 55.3766C148.37 51.5146 150.199 48.9339 150.199 48.9339L160.858 46.829L166.718 50.7368C168.921 52.2559 167.166 54.7543 167.166 54.7543C168.19 57.3351 165.301 59.7145 165.301 59.7145L150.29 55.3858L150.299 55.3766Z" fill="#152949"/>
<path d="M156.57 65.2238L155.263 72.8563C161.644 73.9545 167.129 73.3779 167.129 73.3779L164.661 48.275L152.713 47.4422C148.416 56.0539 148.553 64.208 156.561 65.233L156.57 65.2238Z" fill="#FB7070"/>
<path d="M165.593 55.1753V49.9863L160.977 49.7575C161.013 50.3615 161.26 50.9381 161.662 51.3774C162.064 51.8167 162.622 52.1004 163.225 52.1736C163.043 53.0247 163.198 53.9398 163.646 54.6628C164.094 55.3858 164.834 55.9166 165.675 56.1179C165.675 55.8068 165.657 55.4865 165.593 55.1845V55.1753Z" fill="#152949"/>
<path d="M150.208 48.9339L166.727 50.7276L168.902 44.4862C180.001 43.8639 174.324 33.01 161.05 36.3687C147.95 28.5623 142.967 38.0709 151.058 41.8322L150.199 48.9339H150.208Z" fill="white"/>
<path d="M151.972 42.0061C154.221 42.3905 156.588 42.244 158.81 41.5668C160.739 42.8297 162.96 43.6534 165.282 43.873" stroke="#152949" stroke-width="0.5" stroke-linecap="round" stroke-linejoin="round"/>
<path d="M156.57 65.2238C158.399 65.3336 160.035 64.693 160.035 64.693C159.121 66.8803 156.186 67.4385 156.186 67.4385L156.57 65.2238Z" fill="#152949"/>
<path d="M167.805 56.4565C167.687 57.6188 166.644 58.4974 165.483 58.415C164.322 58.3326 163.481 57.3259 163.6 56.1545C163.719 54.9923 164.761 54.1137 165.922 54.1961C167.083 54.2784 167.924 55.2851 167.805 56.4565Z" fill="#FB7070"/>
<path d="M154.907 55.0929C154.769 55.0289 154.596 55.0838 154.495 55.1936C154.395 55.3126 154.358 55.4773 154.386 55.6237C154.413 55.7702 154.495 55.9074 154.587 56.0173" stroke="#152949" stroke-width="0.5" stroke-linecap="round" stroke-linejoin="round"/>
<path d="M153.636 57.2893L157.018 56.3193C157.238 56.2552 157.457 56.4199 157.448 56.6487C157.311 58.8085 154.102 59.742 153.398 57.7469C153.334 57.5639 153.444 57.3534 153.645 57.2893H153.636Z" fill="white"/>
<path d="M157.613 53.6012C157.859 53.2626 158.289 53.0704 158.7 53.107C159.112 53.1436 159.477 53.4182 159.633 53.7934" stroke="#152949" stroke-width="0.5" stroke-linecap="round" stroke-linejoin="round"/>
<path d="M151.506 53.2169C151.753 52.8782 152.182 52.6861 152.594 52.7227C153.005 52.7593 153.371 53.0338 153.526 53.409" stroke="#152949" stroke-width="0.5" stroke-linecap="round" stroke-linejoin="round"/>
<path d="M177.514 71.6483C190.34 72.8197 226.971 89.2927 223.451 107.678C220.928 120.857 182.597 130.612 182.597 130.612L174.799 118.816L195.605 106.223L179.836 100.311L177.514 71.6574V71.6483Z" fill="#FB7070"/>
<path d="M190.77 104.338L194.125 105.656C200.917 92.1022 210.251 85.6778 210.251 85.6778C194.024 88.6521 190.77 104.347 190.77 104.347V104.338Z" fill="#152949"/>
<path d="M191.254 105.454C195.971 94.0058 211.119 85.1378 211.119 85.1378C211.119 85.1378 196.282 72.4262 177.514 71.6483L178.401 101.08L191.245 105.445L191.254 105.454Z" fill="#9FCAFC"/>
<path d="M97.2039 65.2604C97.2039 65.2604 89.4426 58.9275 83.6558 64.0524C83.6558 64.0524 78.8839 59.0281 73.6639 63.6314C61.5146 58.7994 62.6299 71.3646 68.3435 71.996H103.411C111.758 68.253 109.536 59.2935 97.2039 65.2604Z" fill="#FFCE33"/>
<path d="M71.8174 65.6997C73.0149 64.5558 74.6605 63.8968 76.2785 63.8968C77.9058 63.8968 79.4964 64.5558 80.6117 65.6997" stroke="#152949" stroke-width="0.5" stroke-linecap="round" stroke-linejoin="round"/>
<path d="M79.1489 66.505C80.4379 65.5899 82.0651 65.1781 83.5918 65.3702C85.1276 65.5624 86.5537 66.3586 87.5045 67.5575" stroke="#152949" stroke-width="0.5" stroke-linecap="round" stroke-linejoin="round"/>
<path d="M92.6421 66.6515C93.8397 65.8736 95.2749 65.4892 96.6736 65.5624C98.0723 65.6356 99.4253 66.1573 100.486 67.045" stroke="#152949" stroke-width="0.5" stroke-linecap="round" stroke-linejoin="round"/>
<path d="M68.3435 71.996H103.411L100.687 78.5852H70.1536L68.3435 71.996Z" fill="#152949"/>
<path d="M101.711 78.7042C98.7854 75.3547 93.794 76.5719 93.794 76.5719C93.794 76.5719 87.1571 73.5244 86.3892 74.2657C85.6213 75.0069 90.2196 79.537 90.2196 79.537L101.711 78.7042Z" fill="#FB7070"/>
<path d="M251.772 213.837L261.855 241.357L266.938 255.24L274.389 275.575C274.389 275.575 283.375 279.876 287.827 273.909L285.642 251.021L284.71 241.256L282.095 213.847H251.754L251.772 213.837Z" fill="#FB7070"/>
<path d="M284.728 241.247L261.855 241.357L266.938 255.24C275.851 254.498 282.516 248.385 285.084 245.063L284.719 241.247H284.728Z" fill="#152949"/>
<path d="M270.577 289H278.667L280.258 286.209L282.625 289H309.941L295.305 279.006L287.836 273.909C287.836 273.909 282.68 276.966 274.389 275.584L273.84 277.506L270.567 289.009L270.577 289Z" fill="#FB7070"/>
<path d="M270.576 289H278.667L280.257 286.209L282.625 289H309.941L295.305 279.006C287.26 283.353 277.277 279.189 273.849 277.496L270.576 289Z" fill="#558AD8"/>
<path d="M207.755 213.837L207.846 241.613V241.659L207.947 275.035C213.596 279.08 224.283 275.273 224.283 275.273L230.134 250.746L232.346 241.512L238.946 213.856H207.755V213.837Z" fill="#FB7070"/>
<path d="M207.755 241.613C207.755 241.613 207.819 241.64 207.846 241.659C215.79 245.676 223.232 248.623 230.143 250.737L232.355 241.503L207.855 241.622H207.764L207.755 241.613Z" fill="#152949"/>
<path d="M224.283 275.254L226.861 289H204.793L207.947 275.025L224.283 275.254Z" fill="#FB7070"/>
<path d="M224.758 277.817C214.693 282.868 207.48 277.075 207.48 277.075L204.793 289H226.861L224.767 277.817H224.758Z" fill="#558AD8"/>
<path d="M222.025 116.208H258.967C290.03 159.147 290.259 243.708 290.259 243.708C256.727 253.894 202.425 240.414 202.425 240.414C198.43 177.423 208.76 131.939 222.025 116.208Z" fill="#2E5AA0"/>
<path d="M287.836 238.776C250.364 244.862 205.679 233.742 205.679 233.742" stroke="#152949" stroke-width="0.5" stroke-linecap="round" stroke-linejoin="round"/>
<path d="M213.523 235.445C209.546 157.866 225.508 122.33 225.508 122.33" stroke="#152949" stroke-width="0.5" stroke-linecap="round" stroke-linejoin="round"/>
<path d="M223.552 42.482C222.126 42.4911 220.608 42.8389 219.63 43.8822C218.359 45.2366 218.359 47.3506 218.743 49.1718C219.246 51.5329 220.279 53.7843 221.732 55.7153C222.445 56.6579 223.259 57.5273 223.817 58.5706C224.365 59.6139 224.621 60.8951 224.128 61.975C223.323 63.7321 221.01 64.1256 219.09 63.9426C217.372 63.7687 215.69 63.3203 213.971 63.1555C212.252 62.9908 210.424 63.1555 208.971 64.089C206.639 65.599 205.917 68.6648 205.707 71.4378C205.542 73.5793 205.597 75.8489 206.703 77.6884C208.395 80.4979 211.987 81.4497 215.251 81.7975C219.52 82.255 224.045 82.0629 227.812 79.9854C231.048 78.2009 233.452 75.1534 234.988 71.7947C236.533 68.436 237.273 64.7662 237.785 61.1056C238.178 58.296 238.434 55.3949 237.694 52.6586C236.816 49.4006 234.732 47.9638 232.136 46.1701C229.375 44.2665 227.126 42.4545 223.561 42.4911L223.552 42.482Z" fill="#152949"/>
<path d="M248.838 71.6757C259.04 71.1815 283.942 61.4899 283.942 61.4899L276.409 29.8893L291.429 26.0456C291.429 26.0456 310.435 59.9891 304.31 74.0826C298.185 88.1762 258.884 98.5999 258.884 98.5999L248.847 71.6757H248.838Z" fill="#FB7070"/>
<path d="M279.078 44.5045C290.259 40.917 301.567 44.5045 301.567 44.5045C301.567 44.5045 309.292 61.0507 306.714 71.6757C304.136 82.2917 276.135 96.1747 259.844 98.5999L247.439 71.7581C255.895 70.5501 282.699 60.8219 282.699 60.8219L279.078 44.5045Z" fill="white"/>
<path d="M281.711 18.2484C281.711 18.2484 276.592 11.9246 275.833 12.5561C275.084 13.1875 277.963 17.0038 277.963 17.0038C277.963 17.0038 272.88 11.8422 272.113 12.2449C271.335 12.6476 275.44 18.4223 275.44 18.4223C275.44 18.4223 269.745 12.0344 268.785 12.7116C267.816 13.3889 273.21 19.493 273.21 19.493C273.21 19.493 267.825 13.9471 266.819 14.8623C265.814 15.7774 273.877 24.5081 273.877 24.5081C271.244 23.3367 268.913 24.0963 267.962 24.9199C267.633 25.2036 267.752 25.7344 268.154 25.8809C269.434 26.3293 272.231 27.3909 272.652 28.1413C273.2 29.1297 275.404 30.5391 276.912 30.2554L291.429 26.0365C286.95 16.7475 281.711 18.2392 281.711 18.2392V18.2484Z" fill="#FB7070"/>
<path d="M277.269 22.1928C278.951 21.2593 281.145 21.3508 282.744 22.4215" stroke="#152949" stroke-width="0.5" stroke-linecap="round" stroke-linejoin="round"/>
<path d="M216.183 100.192L217.6 104.073L222.025 116.208C241.57 119.237 258.967 116.208 258.967 116.208L259.698 102.48C264.433 97.6573 260.109 89.8143 255.374 86.2177L248.838 71.6757C248.006 71.6117 230.298 73.3871 224.749 73.9911C221.641 74.3297 219.611 74.6134 219.611 74.6134L216.183 100.192Z" fill="#FC9F01"/>
<path d="M242.987 72.1516C250.949 97.4376 256.645 151.57 256.645 151.57C270.522 151.606 276.683 148.723 276.683 148.723C276.683 148.723 266.966 124.792 259.835 115.622L259.689 102.48C264.543 98.7463 261.353 89.0456 255.365 86.2177L248.828 71.6757L242.978 72.1608L242.987 72.1516Z" fill="white"/>
<path d="M227.629 73.6891C234.814 99.5425 230.252 153.061 230.252 153.061C215.05 153.583 206.338 151.542 206.338 151.542C208.842 125.195 218.204 115.631 218.204 115.631L217.107 102.727L219.611 74.6226L227.629 73.6982V73.6891Z" fill="white"/>
<path d="M242.411 72.2065C244.45 80.7084 234.814 86.4831 229.018 73.5427L242.411 72.2065Z" fill="#FB7070"/>
<path d="M229.786 44.3855C226.331 42.7108 223.296 51.6428 227.62 52.9881C231.944 54.3334 232.977 45.923 229.786 44.3855Z" fill="#FC9F01"/>
<path d="M229.347 44.4313C236.789 39.1233 244.367 46.3074 244.367 46.3074C250.218 44.1201 256.526 55.2028 244.751 62.6431L231.743 62.3502C231.743 62.3502 221.906 49.7392 229.338 44.4313H229.347Z" fill="#152949"/>
<path d="M240.674 66.3586L241.881 73.9636C235.481 75.2083 230.006 74.7507 230.006 74.7507L232.803 49.5745L244.76 48.4671C248.938 56.9873 248.691 65.1506 240.674 66.3586Z" fill="#FB7070"/>
<path d="M246.918 52.622C246.059 51.2767 245.117 49.9955 244.093 48.7783C240.912 52.6494 236.469 55.459 231.606 56.667C231.231 55.0289 230.984 53.3084 231.066 51.6336C231.112 50.7093 231.24 49.7484 231.724 48.9613C232.346 47.9455 233.47 47.3323 234.631 47.0761C235.792 46.8198 236.99 46.8748 238.178 46.9297C240.153 47.0212 242.146 47.7899 244.111 48.0187C244.733 48.0919 245.409 48.1743 245.876 48.5953C246.214 48.8973 246.388 49.3366 246.525 49.7667C246.836 50.691 246.799 51.6611 246.909 52.622H246.918Z" fill="#152949"/>
<path d="M240.674 66.3586C238.846 66.5051 237.219 65.9102 237.219 65.9102C238.105 68.0791 241.021 68.5733 241.021 68.5733L240.674 66.3586Z" fill="#152949"/>
<path d="M229.549 57.8384C229.658 59.0007 230.682 59.861 231.843 59.7511C233.004 59.6413 233.863 58.6163 233.754 57.4541C233.644 56.2918 232.62 55.4316 231.459 55.5414C230.298 55.6512 229.439 56.6762 229.549 57.8384Z" fill="#FB7070"/>
<path d="M242.466 56.182C242.603 56.1179 242.777 56.1637 242.877 56.2735C242.978 56.3833 243.005 56.5481 242.978 56.6945C242.951 56.8409 242.868 56.9782 242.768 57.088" stroke="#152949" stroke-width="0.5" stroke-linecap="round" stroke-linejoin="round"/>
<path d="M243.709 58.3509L240.345 57.4541C240.126 57.3992 239.906 57.5639 239.915 57.7927C240.025 59.9525 243.215 60.8127 243.947 58.7994C244.011 58.6072 243.901 58.4058 243.709 58.3509Z" fill="white"/>
<path d="M239.787 54.7543C239.541 54.4249 239.111 54.2327 238.709 54.2784C238.297 54.3242 237.922 54.6079 237.767 54.9831" stroke="#152949" stroke-width="0.5" stroke-linecap="round" stroke-linejoin="round"/>
<path d="M245.894 54.2235C245.647 53.8941 245.218 53.7019 244.815 53.7476C244.404 53.7934 244.029 54.0771 243.874 54.4523" stroke="#152949" stroke-width="0.5" stroke-linecap="round" stroke-linejoin="round"/>
<path d="M236.35 105.116L234.778 105.994C234.586 112.602 231.523 114.505 229.475 115.631L222.336 103.331C223.241 102.919 225.087 97.6939 227.967 95.6348C230.847 93.5756 236.853 92.2486 236.067 95.6165C238.178 96.4859 237.182 98.6182 237.182 98.6182C239.568 99.7896 238.306 101.071 238.306 101.071C241.478 103.624 236.798 108.694 236.35 105.116Z" fill="#FB7070"/>
<path d="M235.747 95.5341C235.299 95.2687 234.732 95.2138 234.238 95.3694" stroke="#152949" stroke-width="0.5" stroke-linecap="round" stroke-linejoin="round"/>
<path d="M236.816 98.609C236.368 98.2887 235.792 98.1698 235.262 98.2887" stroke="#152949" stroke-width="0.5" stroke-linecap="round" stroke-linejoin="round"/>
<path d="M237.904 100.906C237.611 100.723 237.228 100.677 236.898 100.787" stroke="#152949" stroke-width="0.5" stroke-linecap="round" stroke-linejoin="round"/>
<path d="M236.386 104.96C236.524 104.677 236.606 104.365 236.633 104.045" stroke="#152949" stroke-width="0.5" stroke-linecap="round" stroke-linejoin="round"/>
<path d="M219.612 74.6134C210.406 75.9679 178.739 103.295 183.73 120.152C188.722 137.019 229.475 115.622 229.475 115.622L223.058 102.462L207.444 106.644L217.107 102.718L219.612 74.6134Z" fill="#FB7070"/>
<path d="M221.869 118.184L218.368 117.05C218.368 117.05 219.913 102.068 225.938 102.105C231.962 102.142 232.638 116.958 232.638 116.958L228.945 118.23" stroke="#152949" stroke-width="0.5" stroke-linecap="round" stroke-linejoin="round"/>
<path d="M221.805 119.2C220.626 119.2 220.635 117.361 221.815 117.37C222.994 117.37 222.985 119.209 221.805 119.2Z" fill="#152949"/>
<path d="M228.908 119.182C227.729 119.182 227.738 117.342 228.918 117.352C230.097 117.352 230.088 119.191 228.908 119.182Z" fill="#152949"/>
<path d="M225.938 102.105C226.971 98.609 224.009 92.9076 226.898 91.5074C229.786 90.098 231.423 93.7312 231.423 93.7312" stroke="#152949" stroke-width="0.5" stroke-linecap="round" stroke-linejoin="round"/>
<path d="M235.683 105.116C236.332 107.797 238.023 110.213 240.327 111.733C242.63 113.252 245.519 113.856 248.234 113.389" stroke="#152949" stroke-width="0.5" stroke-linecap="round" stroke-linejoin="round"/>
<path d="M247.11 113.416C247.11 114.634 248.097 115.622 249.313 115.622C250.529 115.622 251.516 114.634 251.516 113.416C251.516 112.199 250.529 111.211 249.313 111.211C248.097 111.211 247.11 112.199 247.11 113.416Z" fill="#152949"/>
<path d="M215.443 104.503C211.914 111.696 212.307 122.33 212.307 122.33L209.482 115.631L212.463 105.308L215.443 104.512V104.503Z" fill="#152949"/>
<path d="M213.157 105.116C209.601 111.431 212.527 123.319 212.527 123.319C212.527 123.319 186.043 133.678 183.2 120.097C180.357 106.516 201.365 78.0819 219.612 74.6134L217.399 103.981L213.157 105.116Z" fill="white"/>
<path d="M262.029 97.9044C261.791 89.4025 255.365 86.2177 255.365 86.2177L250.154 74.6134" stroke="#152949" stroke-width="0.5" stroke-linecap="round" stroke-linejoin="round"/>
<path d="M213.157 105.116L201.557 107.742" stroke="#152949" stroke-width="0.5" stroke-linecap="round" stroke-linejoin="round"/>
<path d="M220.635 78.6218C223.204 92.514 219.922 102.846 219.922 102.846" stroke="#152949" stroke-width="0.5" stroke-linecap="round" stroke-linejoin="round"/>
<path d="M218.962 132.8L208.084 131.866" stroke="#152949" stroke-width="0.5" stroke-linecap="round" stroke-linejoin="round"/>
<path d="M270.376 129.285L260.493 131.399" stroke="#152949" stroke-width="0.5" stroke-linecap="round" stroke-linejoin="round"/>
<path d="M246.744 103.441C244.486 103.633 242.21 103.606 239.952 103.34" stroke="#152949" stroke-width="0.5" stroke-linecap="round" stroke-linejoin="round"/>
<path d="M138.186 14.725L135.727 13.3797C135.727 13.3797 135.672 13.3431 135.663 13.3157L134.319 10.8539C134.255 10.7349 134.091 10.7349 134.027 10.8539L132.683 13.3157C132.683 13.3157 132.646 13.3706 132.619 13.3797L130.16 14.725C130.041 14.7891 130.041 14.9538 130.16 15.0179L132.619 16.3632C132.619 16.3632 132.674 16.3998 132.683 16.4272L134.027 18.889C134.091 19.008 134.255 19.008 134.319 18.889L135.663 16.4272C135.663 16.4272 135.7 16.3723 135.727 16.3632L138.186 15.0179C138.305 14.9538 138.305 14.7891 138.186 14.725Z" fill="#FC9F01"/>
<path d="M141.907 34.2546L140.517 33.495C140.517 33.495 140.49 33.4767 140.481 33.4584L139.722 32.0674C139.686 32.0033 139.594 32.0033 139.558 32.0674L138.799 33.4584C138.799 33.4584 138.781 33.4859 138.762 33.495L137.373 34.2546C137.309 34.2912 137.309 34.3828 137.373 34.4194L138.762 35.1789C138.762 35.1789 138.79 35.1973 138.799 35.2156L139.558 36.6066C139.594 36.6707 139.686 36.6707 139.722 36.6066L140.481 35.2156C140.481 35.2156 140.499 35.1881 140.517 35.1789L141.907 34.4194C141.971 34.3828 141.971 34.2912 141.907 34.2546Z" fill="#FC9F01"/>
<path d="M128.387 30.3469L123.907 27.8942C123.852 27.8668 123.816 27.821 123.788 27.7753L121.338 23.291C121.219 23.0805 120.918 23.0805 120.808 23.291L118.358 27.7753C118.331 27.8302 118.285 27.8668 118.239 27.8942L113.76 30.3469C113.549 30.4658 113.549 30.7679 113.76 30.8777L118.239 33.3303C118.294 33.3578 118.331 33.4035 118.358 33.4493L120.808 37.9336C120.927 38.1441 121.229 38.1441 121.338 37.9336L123.788 33.4493C123.816 33.3944 123.861 33.3578 123.907 33.3303L128.387 30.8777C128.597 30.7587 128.597 30.4567 128.387 30.3469Z" fill="#FC9F01"/>
<path d="M11.5826 187.609L8.07221 185.687C8.07221 185.687 7.99907 185.632 7.98079 185.595L6.06103 182.081C5.96961 181.917 5.73193 181.917 5.64965 182.081L3.72989 185.595C3.72989 185.595 3.67504 185.669 3.63847 185.687L0.128052 187.609C-0.0364991 187.7 -0.0364991 187.938 0.128052 188.021L3.63847 189.943C3.63847 189.943 3.71161 189.997 3.72989 190.034L5.64965 193.548C5.74107 193.713 5.97875 193.713 6.06103 193.548L7.98079 190.034C7.98079 190.034 8.03564 189.961 8.07221 189.943L11.5826 188.021C11.7472 187.929 11.7472 187.691 11.5826 187.609Z" fill="#FC9F01"/>
<path d="M20.6056 200.302L18.631 199.222C18.631 199.222 18.5944 199.195 18.5762 199.167L17.4974 197.191C17.4426 197.099 17.3146 197.099 17.2598 197.191L16.181 199.167C16.181 199.167 16.1536 199.204 16.1262 199.222L14.1516 200.302C14.0602 200.357 14.0602 200.485 14.1516 200.54L16.1262 201.62C16.1262 201.62 16.1628 201.647 16.181 201.675L17.2598 203.652C17.3146 203.743 17.4426 203.743 17.4974 203.652L18.5762 201.675C18.5762 201.675 18.6036 201.638 18.631 201.62L20.6056 200.54C20.697 200.485 20.697 200.357 20.6056 200.302Z" fill="#FC9F01"/>
<path d="M421.964 36.0209L423.883 32.5067C423.883 32.5067 423.938 32.4335 423.975 32.4151L427.485 30.4933C427.65 30.4018 427.65 30.1638 427.485 30.0815L423.975 28.1596C423.975 28.1596 423.902 28.1047 423.883 28.0681L421.964 24.5539C421.872 24.3892 421.635 24.3892 421.552 24.5539L419.632 28.0681C419.632 28.0681 419.578 28.1413 419.541 28.1596L416.031 30.0815C415.866 30.173 415.866 30.4109 416.031 30.4933L419.541 32.4151C419.541 32.4151 419.614 32.4701 419.632 32.5067L421.552 36.0209C421.644 36.1856 421.881 36.1856 421.964 36.0209Z" fill="#FC9F01"/>
<path d="M409.284 45.0627L410.363 43.086C410.363 43.086 410.39 43.0494 410.418 43.0311L412.392 41.9512C412.484 41.8963 412.484 41.7681 412.392 41.7132L410.418 40.6333C410.418 40.6333 410.381 40.6059 410.363 40.5784L409.284 38.6017C409.229 38.5102 409.101 38.5102 409.046 38.6017L407.968 40.5784C407.968 40.5784 407.94 40.615 407.913 40.6333L405.938 41.7132C405.847 41.7681 405.847 41.8963 405.938 41.9512L407.913 43.0311C407.913 43.0311 407.949 43.0585 407.968 43.086L409.046 45.0627C409.101 45.1543 409.229 45.1543 409.284 45.0627Z" fill="#FC9F01"/>
<path d="M453.676 212.007L455.797 210.845C455.797 210.845 455.843 210.808 455.852 210.79L457.013 208.667C457.068 208.566 457.214 208.566 457.269 208.667L458.43 210.79C458.43 210.79 458.467 210.836 458.485 210.845L460.606 212.007C460.706 212.062 460.706 212.208 460.606 212.263L458.485 213.426C458.485 213.426 458.439 213.462 458.43 213.481L457.269 215.604C457.214 215.704 457.068 215.704 457.013 215.604L455.852 213.481C455.852 213.481 455.816 213.435 455.797 213.426L453.676 212.263C453.576 212.208 453.576 212.062 453.676 212.007Z" fill="#FC9F01"/>
<path d="M450.468 228.855L451.665 228.196C451.665 228.196 451.693 228.178 451.702 228.16L452.36 226.961C452.387 226.906 452.47 226.906 452.506 226.961L453.164 228.16C453.164 228.16 453.183 228.187 453.201 228.196L454.399 228.855C454.453 228.883 454.453 228.965 454.399 229.002L453.201 229.661C453.201 229.661 453.174 229.679 453.164 229.697L452.506 230.896C452.479 230.951 452.397 230.951 452.36 230.896L451.702 229.697C451.702 229.697 451.683 229.67 451.665 229.661L450.468 229.002C450.413 228.974 450.413 228.892 450.468 228.855Z" fill="#FC9F01"/>
<path d="M462.132 225.488L465.999 223.374C465.999 223.374 466.082 223.309 466.1 223.273L468.212 219.402C468.312 219.219 468.568 219.219 468.669 219.402L470.781 223.273C470.781 223.273 470.845 223.355 470.881 223.374L474.748 225.488C474.931 225.588 474.931 225.844 474.748 225.945L470.881 228.059C470.881 228.059 470.799 228.123 470.781 228.16L468.669 232.031C468.568 232.214 468.312 232.214 468.212 232.031L466.1 228.16C466.1 228.16 466.036 228.077 465.999 228.059L462.132 225.945C461.95 225.844 461.95 225.588 462.132 225.488Z" fill="#FC9F01"/>
</g>
<defs>
<clipPath id="clip0_41_165">
<rect width="525" height="289" fill="white"/>
</clipPath>
</defs>
</svg>
